<mxfile host="65bd71144e">
    <diagram id="Ht1M8jgEwFfnCIfOTk4-" name="Page-1">
        <mxGraphModel dx="1354" dy="614" grid="0" gridSize="10" guides="1" tooltips="1" connect="1" arrows="1" fold="1" page="1" pageScale="1" pageWidth="1169" pageHeight="827" background="none" math="0" shadow="0">
            <root>
                <mxCell id="0"/>
                <mxCell id="1" parent="0"/>
                <mxCell id="wtpPDkRBA371duj4lmr9-10" value="AWS Cloud" style="sketch=0;outlineConnect=0;gradientColor=none;html=1;whiteSpace=wrap;fontSize=12;fontStyle=0;shape=mxgraph.aws4.group;grIcon=mxgraph.aws4.group_aws_cloud;strokeColor=#AAB7B8;fillColor=none;verticalAlign=top;align=left;spacingLeft=30;fontColor=#AAB7B8;dashed=0;movable=1;resizable=1;rotatable=1;deletable=1;editable=1;locked=0;connectable=1;" parent="1" vertex="1">
                    <mxGeometry x="300" y="56" width="810" height="720" as="geometry"/>
                </mxCell>
                <mxCell id="wtpPDkRBA371duj4lmr9-19" value="VPC" style="sketch=0;outlineConnect=0;gradientColor=none;html=1;whiteSpace=wrap;fontSize=12;fontStyle=0;shape=mxgraph.aws4.group;grIcon=mxgraph.aws4.group_vpc;strokeColor=#B6BABF;fillColor=none;verticalAlign=top;align=left;spacingLeft=30;fontColor=#B6BABF;dashed=0;fontFamily=Helvetica;labelBackgroundColor=default;" parent="1" vertex="1">
                    <mxGeometry x="540" y="182" width="520" height="554" as="geometry"/>
                </mxCell>
                <mxCell id="wtpPDkRBA371duj4lmr9-23" style="edgeStyle=orthogonalEdgeStyle;shape=connector;rounded=0;orthogonalLoop=1;jettySize=auto;html=1;strokeColor=default;align=center;verticalAlign=middle;fontFamily=Helvetica;fontSize=11;fontColor=default;labelBackgroundColor=default;startArrow=classic;startFill=1;startSize=7;endArrow=classic;endFill=1;endSize=7;" parent="1" source="wtpPDkRBA371duj4lmr9-2" target="wtpPDkRBA371duj4lmr9-22" edge="1">
                    <mxGeometry relative="1" as="geometry"/>
                </mxCell>
                <mxCell id="wtpPDkRBA371duj4lmr9-32" style="edgeStyle=orthogonalEdgeStyle;shape=connector;rounded=0;orthogonalLoop=1;jettySize=auto;html=1;strokeColor=default;align=center;verticalAlign=middle;fontFamily=Helvetica;fontSize=11;fontColor=default;labelBackgroundColor=default;startArrow=classic;startFill=1;startSize=7;endArrow=classic;endFill=1;endSize=7;" parent="1" source="wtpPDkRBA371duj4lmr9-2" target="wtpPDkRBA371duj4lmr9-21" edge="1">
                    <mxGeometry relative="1" as="geometry"/>
                </mxCell>
                <mxCell id="wtpPDkRBA371duj4lmr9-2" value="Amazon API&lt;br&gt;Gateway&lt;br&gt;" style="outlineConnect=0;fontColor=#232F3E;gradientColor=#945DF2;gradientDirection=north;fillColor=#5A30B5;strokeColor=#ffffff;dashed=0;verticalLabelPosition=bottom;verticalAlign=top;align=center;html=1;fontSize=12;fontStyle=0;aspect=fixed;shape=mxgraph.aws4.resourceIcon;resIcon=mxgraph.aws4.api_gateway;labelBackgroundColor=#ffffff;" parent="1" vertex="1">
                    <mxGeometry x="410" y="340" width="78" height="78" as="geometry"/>
                </mxCell>
                <mxCell id="wtpPDkRBA371duj4lmr9-13" style="edgeStyle=orthogonalEdgeStyle;rounded=0;orthogonalLoop=1;jettySize=auto;html=1;startArrow=classic;startFill=1;endArrow=classic;endFill=1;endSize=7;startSize=7;" parent="1" source="wtpPDkRBA371duj4lmr9-7" target="wtpPDkRBA371duj4lmr9-2" edge="1">
                    <mxGeometry relative="1" as="geometry"/>
                </mxCell>
                <mxCell id="wtpPDkRBA371duj4lmr9-7" value="FuncionÃ¡rio / Admin" style="verticalLabelPosition=bottom;html=1;verticalAlign=top;align=center;strokeColor=none;fillColor=#00BEF2;shape=mxgraph.azure.computer;pointerEvents=1;" parent="1" vertex="1">
                    <mxGeometry x="129" y="342" width="80" height="74" as="geometry"/>
                </mxCell>
                <mxCell id="wtpPDkRBA371duj4lmr9-18" style="edgeStyle=orthogonalEdgeStyle;rounded=0;orthogonalLoop=1;jettySize=auto;html=1;exitX=1;exitY=0.5;exitDx=0;exitDy=0;exitPerimeter=0;startArrow=classic;startFill=1;strokeColor=default;align=center;verticalAlign=middle;fontFamily=Helvetica;fontSize=11;fontColor=default;labelBackgroundColor=default;startSize=7;endArrow=classic;endFill=1;endSize=7;" parent="1" source="wtpPDkRBA371duj4lmr9-12" target="wtpPDkRBA371duj4lmr9-2" edge="1">
                    <mxGeometry relative="1" as="geometry">
                        <Array as="points">
                            <mxPoint x="270" y="495"/>
                            <mxPoint x="270" y="401"/>
                        </Array>
                    </mxGeometry>
                </mxCell>
                <mxCell id="wtpPDkRBA371duj4lmr9-12" value="Cliente" style="verticalLabelPosition=bottom;html=1;verticalAlign=top;align=center;strokeColor=none;fillColor=#00BEF2;shape=mxgraph.azure.computer;pointerEvents=1;" parent="1" vertex="1">
                    <mxGeometry x="129.5" y="458" width="80" height="74" as="geometry"/>
                </mxCell>
                <mxCell id="wtpPDkRBA371duj4lmr9-21" value="Lambda Function" style="outlineConnect=0;dashed=0;verticalLabelPosition=bottom;verticalAlign=top;align=center;html=1;shape=mxgraph.aws3.lambda_function;fillColor=#F58534;gradientColor=none;fontFamily=Helvetica;fontSize=11;fontColor=default;labelBackgroundColor=default;" parent="1" vertex="1">
                    <mxGeometry x="414.5" y="575" width="69" height="72" as="geometry"/>
                </mxCell>
                <mxCell id="wtpPDkRBA371duj4lmr9-22" value="Amazon Cognito" style="sketch=0;points=[[0,0,0],[0.25,0,0],[0.5,0,0],[0.75,0,0],[1,0,0],[0,1,0],[0.25,1,0],[0.5,1,0],[0.75,1,0],[1,1,0],[0,0.25,0],[0,0.5,0],[0,0.75,0],[1,0.25,0],[1,0.5,0],[1,0.75,0]];outlineConnect=0;fontColor=#232F3E;fillColor=#DD344C;strokeColor=#ffffff;dashed=0;verticalLabelPosition=bottom;verticalAlign=top;align=center;html=1;fontSize=12;fontStyle=0;aspect=fixed;shape=mxgraph.aws4.resourceIcon;resIcon=mxgraph.aws4.cognito;fontFamily=Helvetica;labelBackgroundColor=default;" parent="1" vertex="1">
                    <mxGeometry x="410" y="149" width="78" height="78" as="geometry"/>
                </mxCell>
                <mxCell id="wtpPDkRBA371duj4lmr9-26" value="Public subnet" style="points=[[0,0],[0.25,0],[0.5,0],[0.75,0],[1,0],[1,0.25],[1,0.5],[1,0.75],[1,1],[0.75,1],[0.5,1],[0.25,1],[0,1],[0,0.75],[0,0.5],[0,0.25]];outlineConnect=0;gradientColor=none;html=1;whiteSpace=wrap;fontSize=12;fontStyle=0;container=1;pointerEvents=0;collapsible=0;recursiveResize=0;shape=mxgraph.aws4.group;grIcon=mxgraph.aws4.group_security_group;grStroke=0;strokeColor=#7AA116;fillColor=#F2F6E8;verticalAlign=top;align=left;spacingLeft=30;fontColor=#248814;dashed=0;fontFamily=Helvetica;labelBackgroundColor=default;" parent="1" vertex="1">
                    <mxGeometry x="576" y="277" width="450" height="189" as="geometry"/>
                </mxCell>
                <mxCell id="wtpPDkRBA371duj4lmr9-24" value="Amazon EKS" style="sketch=0;outlineConnect=0;fontColor=#232F3E;gradientColor=none;strokeColor=#ffffff;fillColor=#232F3E;dashed=0;verticalLabelPosition=middle;verticalAlign=bottom;align=center;html=1;whiteSpace=wrap;fontSize=10;fontStyle=1;spacing=3;shape=mxgraph.aws4.productIcon;prIcon=mxgraph.aws4.eks;fontFamily=Helvetica;labelBackgroundColor=default;" parent="1" vertex="1">
                    <mxGeometry x="754" y="329" width="80" height="100" as="geometry"/>
                </mxCell>
                <mxCell id="wtpPDkRBA371duj4lmr9-25" style="edgeStyle=orthogonalEdgeStyle;shape=connector;rounded=0;orthogonalLoop=1;jettySize=auto;html=1;strokeColor=default;align=center;verticalAlign=middle;fontFamily=Helvetica;fontSize=11;fontColor=default;labelBackgroundColor=default;startArrow=classic;startFill=1;startSize=7;endArrow=classic;endFill=1;endSize=7;" parent="1" source="wtpPDkRBA371duj4lmr9-2" target="wtpPDkRBA371duj4lmr9-24" edge="1">
                    <mxGeometry relative="1" as="geometry"/>
                </mxCell>
                <mxCell id="wtpPDkRBA371duj4lmr9-28" value="Private subnet" style="points=[[0,0],[0.25,0],[0.5,0],[0.75,0],[1,0],[1,0.25],[1,0.5],[1,0.75],[1,1],[0.75,1],[0.5,1],[0.25,1],[0,1],[0,0.75],[0,0.5],[0,0.25]];outlineConnect=0;gradientColor=none;html=1;whiteSpace=wrap;fontSize=12;fontStyle=0;container=1;pointerEvents=0;collapsible=0;recursiveResize=0;shape=mxgraph.aws4.group;grIcon=mxgraph.aws4.group_security_group;grStroke=0;strokeColor=#00A4A6;fillColor=#E6F6F7;verticalAlign=top;align=left;spacingLeft=30;fontColor=#147EBA;dashed=0;fontFamily=Helvetica;labelBackgroundColor=default;" parent="1" vertex="1">
                    <mxGeometry x="576" y="496" width="448" height="182" as="geometry"/>
                </mxCell>
                <mxCell id="wtpPDkRBA371duj4lmr9-29" value="RDS (Aurora)" style="outlineConnect=0;dashed=0;verticalLabelPosition=bottom;verticalAlign=top;align=center;html=1;shape=mxgraph.aws3.rds;fillColor=#2E73B8;gradientColor=none;fontFamily=Helvetica;fontSize=11;fontColor=default;labelBackgroundColor=default;" parent="1" vertex="1">
                    <mxGeometry x="758" y="546" width="72" height="81" as="geometry"/>
                </mxCell>
                <mxCell id="wtpPDkRBA371duj4lmr9-30" style="edgeStyle=orthogonalEdgeStyle;shape=connector;rounded=0;orthogonalLoop=1;jettySize=auto;html=1;strokeColor=default;align=center;verticalAlign=middle;fontFamily=Helvetica;fontSize=11;fontColor=default;labelBackgroundColor=default;startArrow=classic;startFill=1;startSize=7;endArrow=classic;endFill=1;endSize=7;" parent="1" source="wtpPDkRBA371duj4lmr9-24" target="wtpPDkRBA371duj4lmr9-29" edge="1">
                    <mxGeometry relative="1" as="geometry"/>
                </mxCell>
                <mxCell id="wtpPDkRBA371duj4lmr9-33" style="edgeStyle=orthogonalEdgeStyle;shape=connector;rounded=0;orthogonalLoop=1;jettySize=auto;html=1;strokeColor=default;align=center;verticalAlign=middle;fontFamily=Helvetica;fontSize=11;fontColor=default;labelBackgroundColor=default;startArrow=classic;startFill=1;startSize=7;endArrow=classic;endFill=1;endSize=7;" parent="1" source="wtpPDkRBA371duj4lmr9-21" target="wtpPDkRBA371duj4lmr9-29" edge="1">
                    <mxGeometry relative="1" as="geometry"/>
                </mxCell>
                <mxCell id="wtpPDkRBA371duj4lmr9-46" style="edgeStyle=orthogonalEdgeStyle;shape=connector;rounded=0;orthogonalLoop=1;jettySize=auto;html=1;exitX=1;exitY=0.5;exitDx=0;exitDy=0;strokeColor=default;align=center;verticalAlign=middle;fontFamily=Helvetica;fontSize=11;fontColor=default;labelBackgroundColor=default;startArrow=classic;startFill=1;startSize=7;endArrow=classic;endFill=1;endSize=7;" parent="1" source="wtpPDkRBA371duj4lmr9-39" target="wtpPDkRBA371duj4lmr9-2" edge="1">
                    <mxGeometry relative="1" as="geometry">
                        <Array as="points">
                            <mxPoint x="235" y="170"/>
                            <mxPoint x="235" y="171"/>
                            <mxPoint x="271" y="171"/>
                            <mxPoint x="271" y="358"/>
                        </Array>
                    </mxGeometry>
                </mxCell>
                <mxCell id="wtpPDkRBA371duj4lmr9-39" value="Gateway de Pagamento (MP)" style="rounded=0;whiteSpace=wrap;html=1;fontFamily=Helvetica;fontSize=11;fontColor=default;labelBackgroundColor=default;" parent="1" vertex="1">
                    <mxGeometry x="109.5" y="140" width="120" height="60" as="geometry"/>
                </mxCell>
                <mxCell id="wtpPDkRBA371duj4lmr9-42" value="" style="container=1;collapsible=0;expand=0;recursiveResize=0;html=1;whiteSpace=wrap;image=;strokeColor=#1192E8;fillColor=none;strokeWidth=1;fontFamily=Helvetica;fontSize=11;fontColor=default;labelBackgroundColor=default;" parent="1" vertex="1">
                    <mxGeometry x="83" y="292" width="162" height="279" as="geometry"/>
                </mxCell>
                <mxCell id="wtpPDkRBA371duj4lmr9-43" value="Restaurante" style="shape=rect;fillColor=none;aspect=fixed;resizable=0;labelPosition=right;verticalLabelPosition=middle;align=left;verticalAlign=middle;strokeColor=none;part=1;spacingLeft=5;fontSize=14;fontFamily=Helvetica;fontColor=default;labelBackgroundColor=default;" parent="wtpPDkRBA371duj4lmr9-42" vertex="1">
                    <mxGeometry width="48" height="48" relative="1" as="geometry"/>
                </mxCell>
                <mxCell id="wtpPDkRBA371duj4lmr9-44" value="" style="fillColor=#1192E8;shape=mxgraph.ibm_cloud.network--enterprise;strokeColor=none;dashed=0;outlineConnect=0;html=1;labelPosition=center;verticalLabelPosition=bottom;verticalAlign=top;part=1;movable=0;resizable=0;rotatable=0;fontFamily=Helvetica;fontSize=11;fontColor=default;labelBackgroundColor=default;" parent="wtpPDkRBA371duj4lmr9-43" vertex="1">
                    <mxGeometry width="24" height="24" relative="1" as="geometry">
                        <mxPoint x="12" y="12" as="offset"/>
                    </mxGeometry>
                </mxCell>
                <mxCell id="wtpPDkRBA371duj4lmr9-45" value="" style="shape=rect;fillColor=#1192E8;aspect=fixed;resizable=0;labelPosition=right;verticalLabelPosition=middle;align=left;verticalAlign=middle;strokeColor=none;part=1;spacingLeft=5;fontSize=14;fontFamily=Helvetica;fontColor=default;labelBackgroundColor=default;" parent="wtpPDkRBA371duj4lmr9-42" vertex="1">
                    <mxGeometry width="4" height="48" relative="1" as="geometry"/>
                </mxCell>
                <mxCell id="2" value="VPC" style="sketch=0;outlineConnect=0;gradientColor=none;html=1;whiteSpace=wrap;fontSize=12;fontStyle=0;shape=mxgraph.aws4.group;grIcon=mxgraph.aws4.group_vpc;strokeColor=#B6BABF;fillColor=none;verticalAlign=top;align=left;spacingLeft=30;fontColor=#B6BABF;dashed=0;fontFamily=Helvetica;labelBackgroundColor=default;" vertex="1" parent="1">
                    <mxGeometry x="310" y="493" width="222" height="242" as="geometry"/>
                </mxCell>
            </root>
        </mxGraphModel>
    </diagram>
</mxfile>